<?xml version="1.0" encoding="UTF-8" standalone="no"?>
<svg
   class="ionicon"
   viewBox="0 0 128 128"
   version="1.1"
   id="svg20"
   sodipodi:docname="Icon.svg"
   xml:space="preserve"
   width="128"
   height="128"
   inkscape:version="1.2.1 (9c6d41e410, 2022-07-14)"
   inkscape:export-filename="Icon.png"
   inkscape:export-xdpi="96"
   inkscape:export-ydpi="96"
   xmlns:inkscape="http://www.inkscape.org/namespaces/inkscape"
   xmlns:sodipodi="http://sodipodi.sourceforge.net/DTD/sodipodi-0.dtd"
   xmlns="http://www.w3.org/2000/svg"
   xmlns:svg="http://www.w3.org/2000/svg"><defs
     id="defs24" /><sodipodi:namedview
     id="namedview22"
     pagecolor="#505050"
     bordercolor="#ffffff"
     borderopacity="1"
     inkscape:showpageshadow="0"
     inkscape:pageopacity="0"
     inkscape:pagecheckerboard="1"
     inkscape:deskcolor="#505050"
     showgrid="false"
     inkscape:zoom="4.0117187"
     inkscape:cx="31.03408"
     inkscape:cy="72.911392"
     inkscape:window-width="2560"
     inkscape:window-height="1361"
     inkscape:window-x="-9"
     inkscape:window-y="-9"
     inkscape:window-maximized="1"
     inkscape:current-layer="svg20" /><path
     d="m 14.043369,119.68079 h 99.913261 a 9.3798751,9.3798751 0 0 0 8.25722,-13.82653 L 72.260151,13.081429 c -3.543834,-6.5776379 -12.976471,-6.5776379 -16.520305,0 L 5.786148,105.85426 a 9.3798751,9.3798751 0 0 0 8.257221,13.82653 z"
     fill="none"
     stroke="currentColor"
     stroke-linecap="round"
     stroke-linejoin="round"
     stroke-width="9.37988"
     id="path14"
     style="fill:#ffcc00;fill-opacity:1" /><g
     id="g4149"
     transform="matrix(0.14573368,0,0,0.14573368,26.692178,39.973973)"><path
       d="m 264,416.19 a 23.92,23.92 0 0 1 -14.21,-4.69 l -0.66,-0.51 -91.46,-75 H 88 a 24,24 0 0 1 -24,-24 V 200 a 24,24 0 0 1 24,-24 h 69.65 l 91.46,-75 0.66,-0.51 A 24,24 0 0 1 288,119.83 v 272.34 a 24,24 0 0 1 -24,24 z M 352,336 a 16,16 0 0 1 -14.29,-23.18 c 9.49,-18.9 14.3,-38 14.3,-56.82 0,-19.36 -4.66,-37.92 -14.25,-56.73 a 16,16 0 0 1 28.5,-14.54 C 378.2,208.16 384,231.47 384,256 c 0,23.83 -6,47.78 -17.7,71.18 A 16,16 0 0 1 352,336 Z"
       id="path4137" /><path
       d="M 400,384 A 16,16 0 0 1 386.13,360 C 405,327.05 416,299.45 416,256 416,211.88 405.06,184.48 386.17,152.05 A 16,16 0 0 1 413.83,136 c 21.09,36.16 34.17,68.88 34.17,120 0,50.36 -13.06,83.24 -34.12,120 A 16,16 0 0 1 400,384 Z"
       id="path4139" /></g></svg>
